<svg width="24" height="24" viewBox="0 0 24 24" fill="none" xmlns="http://www.w3.org/2000/svg">
<path d="M18.9993 4.17531C19.1945 3.98019 19.5111 3.98024 19.7063 4.17531L20.1136 4.58254C20.3085 4.77774 20.3085 5.09436 20.1136 5.28957L13.2542 12.148L20.1136 19.0064C20.3086 19.2015 20.3084 19.5181 20.1136 19.7134L19.7063 20.1206C19.5111 20.316 19.1946 20.3159 18.9993 20.1206L12.1399 13.2612L5.28153 20.1206C5.08625 20.3159 4.76974 20.3159 4.5745 20.1206L4.16727 19.7134C3.97237 19.5181 3.97213 19.2015 4.16727 19.0064L11.0257 12.148L4.16727 5.28957C3.97227 5.09435 3.97221 4.77775 4.16727 4.58254L4.5745 4.17531C4.76975 3.98029 5.08632 3.98015 5.28153 4.17531L12.1399 11.0337L18.9993 4.17531Z" fill="#A9ABB7"/>
</svg>
