<svg width="127" height="28" viewBox="0 0 127 28" fill="none" xmlns="http://www.w3.org/2000/svg">
<path fill-rule="evenodd" clip-rule="evenodd" d="M77.0545 17.2648H79.2252C79.6436 17.2648 80.0007 17.2229 80.2975 17.1392C80.5936 17.0555 80.8291 16.893 81.0036 16.651C81.1776 16.4096 81.3042 16.0374 81.3826 15.535C81.4611 15.0331 81.5004 14.6672 81.5004 13.8487C81.5004 13.0493 81.4697 12.4076 81.4089 11.9237C81.3476 11.4403 81.2344 11.0685 81.0689 10.8079C80.903 10.5476 80.6722 10.3712 80.3759 10.2778C80.0792 10.185 79.6958 10.1383 79.2252 10.1383H77.0545V17.2648ZM74.3085 27.5279V7.59973H79.9573C80.8813 7.59973 81.631 7.73929 82.2065 8.01817C82.7817 8.29728 83.2175 8.70177 83.5141 9.23163C83.8104 9.76171 84.0111 10.4128 84.1157 11.1845C84.2202 11.9564 84.2726 12.8443 84.2726 13.8487C84.2726 14.7972 84.2242 15.3586 84.1286 16.1211C84.0328 16.8839 83.8366 17.5393 83.5403 18.0877C83.2435 18.6366 82.8034 19.055 82.2196 19.3431C81.6353 19.6315 80.8727 19.7755 79.9313 19.7755H77.0545V27.5279H74.3085Z" fill="#292A32"/>
<path fill-rule="evenodd" clip-rule="evenodd" d="M85.4548 27.5279V7.59973H94.0678V10.1383H88.187V15.8292H93.287V18.3401H88.187V24.9894H94.0678V27.5279H85.4548Z" fill="#292A32"/>
<path fill-rule="evenodd" clip-rule="evenodd" d="M98.6941 24.9894H100.461C101.006 24.9894 101.161 24.9615 101.512 24.9056C101.864 24.8498 102.145 24.7103 102.356 24.4872C102.567 24.2639 102.726 23.9061 102.831 23.4133C102.936 22.9205 103.007 22.2275 103.042 21.3348C103.077 20.4421 103.095 18.5725 103.095 17.1962C103.095 15.8013 103.077 14.6624 103.042 13.7786C103.007 12.8956 102.936 12.2074 102.831 11.7144C102.726 11.222 102.567 10.8592 102.356 10.6265C102.145 10.3941 101.864 10.2547 101.512 10.2081C101.161 10.1618 101.006 10.1383 100.461 10.1383H98.6941V24.9894ZM95.9255 27.5279V7.59973H100.513C101.621 7.59973 102.233 7.68827 102.936 7.86466C103.639 8.04174 104.193 8.34373 104.598 8.77132C105.002 9.19937 105.296 9.77567 105.481 10.5011C105.665 11.2264 105.78 12.1426 105.824 13.2488C105.867 14.3554 105.89 15.6714 105.89 17.1962C105.89 18.7212 105.867 20.7725 105.824 21.8789C105.78 22.9855 105.665 23.9013 105.481 24.6265C105.296 25.352 105.002 25.9285 104.598 26.3563C104.193 26.7844 103.639 27.0864 102.936 27.263C102.233 27.4398 101.621 27.5279 100.513 27.5279H95.9255Z" fill="#292A32"/>
<path fill-rule="evenodd" clip-rule="evenodd" d="M107.747 27.359H110.449V7.59973H107.747V27.359Z" fill="#292A32"/>
<path fill-rule="evenodd" clip-rule="evenodd" d="M115.676 20.6526H119.474L117.653 10.6684H117.497L115.676 20.6526ZM111.463 27.5279L115.728 7.59973H119.552L123.791 27.5279H120.982L119.994 23.1353H115.182L114.194 27.5279H111.463Z" fill="#292A32"/>
<path fill-rule="evenodd" clip-rule="evenodd" d="M6.6862 27.1902H0L3.98064 4.17992L10.979 3.69939L13.3681 17.8159L14.1014 17.8139L16.4212 0.479856L24.0211 0L27.1902 26.9205L20.6067 26.9347L20.0774 7.07804L19.3149 7.0855L16.8446 26.9474L11.3969 26.9614L8.10398 9.61045L7.36752 9.6595L6.6862 27.1902Z" fill="#FF0023"/>
<path fill-rule="evenodd" clip-rule="evenodd" d="M34.312 23.8125C35.3825 23.8148 35.9202 23.2398 35.9258 22.0876L35.972 12.261C35.9766 11.295 35.4566 10.8106 34.4133 10.8085C33.2362 10.8062 32.6453 11.2993 32.6407 12.2878L32.5945 22.1032C32.5916 22.7127 32.7232 23.1497 32.9896 23.4141C33.2557 23.6785 33.6967 23.8113 34.312 23.8125ZM34.3331 27.359C32.3403 27.3533 30.819 26.8742 29.7693 25.9217C28.7191 24.9695 28.1975 23.5959 28.2035 21.8014L28.2351 12.2136C28.2409 10.5307 28.767 9.25513 29.8137 8.38699C30.8599 7.51861 32.3894 7.08741 34.4008 7.09313C36.4128 7.09909 37.9383 7.53901 38.9797 8.41311C40.0197 9.28744 40.5378 10.5659 40.5319 12.2488L40.5005 21.8367C40.4943 23.6312 39.9627 25.0015 38.9068 25.9481C37.8503 26.8943 36.3258 27.3647 34.3331 27.359Z" fill="#FF0023"/>
<path fill-rule="evenodd" clip-rule="evenodd" d="M44.2911 27.1708L41.5452 7.59973L45.8784 7.6134L47.5054 20.9266L49.0341 7.6232L53.367 7.63665L50.4994 27.1902L44.2911 27.1708Z" fill="#FF0023"/>
<path fill-rule="evenodd" clip-rule="evenodd" d="M54.887 27.1765L54.947 7.59973L59.2779 7.61342L59.2179 27.1902L54.887 27.1765Z" fill="#FF0023"/>
<path fill-rule="evenodd" clip-rule="evenodd" d="M61.3045 27.1607L61.3647 7.59973L70.3478 7.62823L70.3362 11.407L65.921 11.3931L65.9093 15.2051L70.1459 15.2185L70.1347 18.8974L65.8981 18.884L65.8844 23.3631L70.5931 23.3779L70.5814 27.1902L61.3045 27.1607Z" fill="#FF0023"/>
</svg>
